<?xml version="1.0" encoding="utf-8"?>
<!-- Generator: Adobe Illustrator 16.0.4, SVG Export Plug-In . SVG Version: 6.00 Build 0)  -->
<!DOCTYPE svg PUBLIC "-//W3C//DTD SVG 1.1 Tiny//EN" "http://www.w3.org/Graphics/SVG/1.1/DTD/svg11-tiny.dtd">
<svg version="1.1" baseProfile="tiny" id="Ebene_2" xmlns="http://www.w3.org/2000/svg" xmlns:xlink="http://www.w3.org/1999/xlink"
	 x="0px" y="0px" width="283.462px" height="40.44px" viewBox="0 0 283.462 40.44" xml:space="preserve">
<g>
	<path fill="#002C57" d="M8.544,16.069H0v-4.604h22.873v4.604h-8.581v21.803H8.544V16.069z"/>
	<path fill="#002C57" d="M29.463,11.429h5.893l11.271,26.444h-6.189l-2.431-6.297h-11.49l-2.359,6.297h-5.893L29.463,11.429z
		 M32.19,16.696l-3.87,10.165h7.883L32.19,16.696z"/>
	<path fill="#002C57" d="M48.465,11.429h13.702c3.167,0,5.523,0.626,6.998,1.917c1.473,1.287,2.211,3.276,2.246,6.039
		c0,2.025-0.44,3.684-1.4,4.973c-0.883,1.252-2.209,2.1-3.939,2.469l6.591,11.047h-6.262l-5.817-10.385h-6.558v10.385h-5.562V11.429
		z M60.84,16.144h-6.813v6.667h6.813c1.842,0,3.131-0.26,3.87-0.775c0.699-0.477,1.066-1.361,1.066-2.578
		c0-1.213-0.332-2.061-1.066-2.539C64.045,16.402,62.756,16.144,60.84,16.144z"/>
	<path fill="#002C57" d="M85.7,26.861v-4.678h13.148v15.689H86.877c-2.172,0-3.867-0.185-5.082-0.551
		c-1.177-0.332-2.285-0.957-3.316-1.77c-1.324-1.066-2.355-2.469-3.056-4.197c-0.662-1.73-0.995-3.793-0.995-6.225
		c0-4.678,0.995-8.103,3.021-10.349c2.062-2.247,5.155-3.353,9.428-3.353h11.971v4.567H86.877c-2.172,0-3.755,0.7-4.787,2.1
		c-0.996,1.399-1.473,3.646-1.473,6.774c0,2.875,0.477,4.974,1.473,6.263c0.994,1.325,2.578,1.95,4.787,1.95h6.262v-6.223H85.7z"/>
	<path fill="#002C57" d="M101.717,24.394c0-4.531,1.069-7.919,3.244-10.166c2.172-2.212,5.487-3.277,9.944-3.314
		c4.494,0,7.807,1.102,9.944,3.351c2.173,2.246,3.241,5.708,3.241,10.385c0,4.679-1.068,8.141-3.241,10.387
		c-2.137,2.25-5.45,3.391-9.944,3.391c-4.531,0-7.847-1.141-9.982-3.391C102.786,32.753,101.717,29.218,101.717,24.394z
		 M114.905,15.441c-2.356,0-4.163,0.74-5.341,2.247c-1.178,1.475-1.767,3.722-1.767,6.742c0,3.239,0.551,5.636,1.695,7.183
		c1.177,1.51,2.945,2.246,5.413,2.246c2.431,0,4.198-0.736,5.376-2.246c1.178-1.51,1.767-3.83,1.767-6.963
		c0-3.129-0.588-5.451-1.767-6.962C119.141,16.218,117.372,15.479,114.905,15.441z"/>
</g>
<path fill="#C20831" d="M192.205,37.873h-14.551V11.429h13.594c1.691,0,3.094,0.112,4.162,0.295s1.951,0.479,2.611,0.919
	c0.961,0.627,1.695,1.399,2.211,2.358c0.516,0.994,0.773,2.099,0.773,3.314c0,1.474-0.293,2.727-0.959,3.758
	c-0.623,1.031-1.617,1.877-2.979,2.576c1.361,0.59,2.391,1.365,3.016,2.358c0.664,0.958,0.961,2.173,0.998,3.646
	c0,2.469-0.74,4.273-2.174,5.488C197.47,37.287,195.259,37.873,192.205,37.873z M183.216,16.181v6.113h8.139
	c1.252,0,2.174-0.221,2.764-0.736s0.846-1.289,0.883-2.321c0-1.031-0.293-1.803-0.883-2.319c-0.59-0.479-1.512-0.7-2.764-0.737
	H183.216z M191.431,33.197c1.252,0,2.172-0.223,2.762-0.738s0.883-1.287,0.883-2.355c0-1.066-0.293-1.879-0.883-2.357
	c-0.59-0.516-1.51-0.773-2.762-0.773h-8.215v6.225H191.431z"/>
<path fill="#C20831" d="M213.048,11.429h5.895l11.268,26.444h-6.189l-2.43-6.297h-11.492l-2.355,6.297h-5.895L213.048,11.429z
	 M215.775,16.696l-3.869,10.165h7.881L215.775,16.696z"/>
<path fill="#C20831" d="M232.05,11.429h7.035l10.826,19.004l-0.258-19.004h5.672v26.444h-6.443L237.5,17.874l0.26,19.999h-5.709
	V11.429z"/>
<path fill="#C20831" d="M260.701,11.429h5.562v12.708l10.422-12.708h6.67l-10.609,12.928l10.717,13.516h-7.105l-10.094-13.148
	v13.148h-5.562V11.429z"/>
<path fill="#C20831" d="M145.927,5.252c-0.094-2.809,2.105-5.156,4.91-5.25c2.809-0.092,5.158,2.109,5.252,4.914
	c0.094,2.809-2.109,5.158-4.912,5.249C148.369,10.258,146.021,8.057,145.927,5.252z"/>
<path fill="#7599BD" d="M148.611,21.633c-1.254,1.259-3.094,1.315-4.248,0.161l-8.66-8.66c-1.131-1.153-1.081-3.012,0.158-4.251
	c1.239-1.24,3.122-1.308,4.251-0.158l8.66,8.66C149.925,18.537,149.853,20.388,148.611,21.633z"/>
<path fill="#7599BD" d="M153.408,21.626c1.254,1.259,3.094,1.314,4.248,0.162l8.66-8.66c1.131-1.153,1.08-3.013-0.158-4.252
	c-1.24-1.239-3.123-1.308-4.252-0.158l-8.66,8.66C152.093,18.531,152.166,20.381,153.408,21.626z"/>
<path fill="#002C57" d="M135.575,39.466c1.254,1.259,3.114,1.296,4.292,0.117l8.849-8.85c1.156-1.177,1.127-3.057-0.113-4.296
	c-1.238-1.239-3.141-1.288-4.295-0.112l-8.85,8.848C134.281,36.351,134.333,38.221,135.575,39.466z"/>
<path fill="#002C57" d="M166.449,39.466c-1.254,1.259-3.115,1.296-4.293,0.117l-8.85-8.85c-1.156-1.177-1.127-3.057,0.113-4.296
	s3.143-1.288,4.297-0.112l8.848,8.848C167.742,36.351,167.689,38.221,166.449,39.466z"/>
</svg>
